<?xml version="1.0" standalone="no"?><!-- Generator: Gravit.io --><svg xmlns="http://www.w3.org/2000/svg" xmlns:xlink="http://www.w3.org/1999/xlink" style="isolation:isolate" viewBox="89 142.25 655.87 399.606" width="655.87" height="399.606"><g style="isolation:isolate" id="green microbe"><g id="null"><path d=" M 625.463 503.884 C 597.5 543.936 558.732 547.232 527.911 528.918 C 493.675 508.575 466.294 481.336 492.988 411.243 C 501.063 390.037 531.704 344.603 549.638 316.512 C 571.461 282.33 584.538 252.6 619.245 227.282 C 655.661 198.118 680.445 202.416 707.751 218.792 C 734.834 235.034 750.531 267.718 738.545 305.01 C 729.514 329.568 700.309 362.992 678.663 398.627 C 655.026 437.539 643.016 484.514 625.463 503.884 Z " fill="rgb(28,172,54)" vector-effect="non-scaling-stroke" stroke-width="1.5" stroke="rgb(0,0,0)" stroke-linejoin="miter" stroke-linecap="square" stroke-miterlimit="3"/><path d=" M 614.125 490.548 C 587.118 529.531 550.774 533.505 522.32 516.598 C 490.714 497.818 465.667 472.282 492.118 404.531 C 500.121 384.033 529.746 339.836 547.118 312.531 C 568.256 279.305 581.118 250.531 614.125 225.531 C 648.813 196.809 671.912 200.407 697.118 215.531 C 722.118 230.531 736.118 261.531 724.118 297.531 C 715.151 321.262 687.121 353.916 666.118 388.531 C 643.183 426.329 630.957 471.612 614.125 490.548 Z " fill="rgb(207,236,222)"/><g style="isolation: isolate;"><path d=" M 614.125 490.548 C 587.118 529.531 550.774 533.505 522.32 516.598 C 490.714 497.818 465.667 472.282 492.118 404.531 C 500.121 384.033 529.746 339.836 547.118 312.531 C 568.256 279.305 581.118 250.531 614.125 225.531 C 648.813 196.809 671.912 200.407 697.118 215.531 C 722.118 230.531 736.118 261.531 724.118 297.531 C 715.151 321.262 687.121 353.916 666.118 388.531 C 643.183 426.329 630.957 471.612 614.125 490.548 Z " fill="none" vector-effect="non-scaling-stroke" stroke-width="4" stroke="rgb(0,0,0)" stroke-linejoin="miter" stroke-linecap="square" stroke-miterlimit="3"/><path d=" M 614.125 490.548 C 587.118 529.531 550.774 533.505 522.32 516.598 C 490.714 497.818 465.667 472.282 492.118 404.531 C 500.121 384.033 529.746 339.836 547.118 312.531 C 568.256 279.305 581.118 250.531 614.125 225.531 C 648.813 196.809 671.912 200.407 697.118 215.531 C 722.118 230.531 736.118 261.531 724.118 297.531 C 715.151 321.262 687.121 353.916 666.118 388.531 C 643.183 426.329 630.957 471.612 614.125 490.548 Z " fill="none" vector-effect="non-scaling-stroke" stroke-width="2" stroke="rgb(149,215,155)" stroke-linejoin="miter" stroke-linecap="square" stroke-miterlimit="3"/></g></g></g><g style="isolation:isolate" id="red microbe"><path d=" M 239.463 490.884 C 211.5 530.936 172.732 534.232 141.911 515.918 C 107.675 495.575 80.294 468.336 106.988 398.243 C 115.063 377.037 145.704 331.603 163.638 303.512 C 185.461 269.33 198.538 239.6 233.245 214.282 C 269.661 185.118 294.445 189.416 321.751 205.792 C 348.834 222.034 364.531 254.718 352.545 292.01 C 343.514 316.568 314.309 349.992 292.663 385.627 C 269.026 424.539 257.016 471.514 239.463 490.884 Z " fill="rgb(191,71,95)" vector-effect="non-scaling-stroke" stroke-width="1.5" stroke="rgb(0,0,0)" stroke-linejoin="miter" stroke-linecap="square" stroke-miterlimit="3"/><path d=" M 308 202.527 C 315.755 193.379 322.824 182.222 332.212 175.517 C 337.153 172.222 343.552 167.514 347.963 167.514 C 357.103 166.43 361.02 166.513 368.964 173.182 C 376.026 180.185 377.151 192.981 380.361 196.191 C 385.325 201.155 393.351 198.616 397.534 194.433 C 402.484 185.906 403.62 176.979 409.315 173.182 C 417.501 167.725 429.388 177.602 436.018 173.182 C 442.345 168.964 440.199 160.533 436.018 156.352 C 428.558 148.891 403.72 144.667 393.888 144.667 C 385.697 144.667 378.724 144 371.546 144 C 357.706 144 375.149 143 380.883 143 C 389.19 143 393.171 143 399.89 143 C 406.602 143 430.727 146.872 436.018 152.425 C 441.927 158.334 443.126 160.189 443.872 165.776 C 442.86 175.114 439.75 176.951 431.305 178.342 C 423.149 178.558 416.863 174.881 411.671 178.342 C 404.74 182.963 403.862 201.979 393.699 204.528 C 386.647 206.878 382.983 208.037 375.965 204.528 C 366.864 199.977 373.358 194.19 361.089 184.807 C 350.016 176.85 342.722 186.931 339.212 190.933 C 333.719 196.935 321.903 211.036 320.836 212.531" fill="rgb(191,71,95)" vector-effect="non-scaling-stroke" stroke-width="0.5" stroke="rgb(0,0,0)" stroke-linejoin="miter" stroke-linecap="square" stroke-miterlimit="3"/><path d=" M 228.125 477.548 C 201.118 516.531 164.774 520.505 136.32 503.598 C 104.714 484.818 79.667 459.282 106.118 391.531 C 114.121 371.033 143.746 326.836 161.118 299.531 C 182.256 266.305 195.118 237.531 228.125 212.531 C 262.813 183.809 285.912 187.407 311.118 202.531 C 336.118 217.531 350.118 248.531 338.118 284.531 C 329.151 308.262 301.121 340.916 280.118 375.531 C 257.183 413.329 244.957 458.612 228.125 477.548 Z " fill="rgb(253,229,234)"/><g style="isolation: isolate;"><path d=" M 228.125 477.548 C 201.118 516.531 164.774 520.505 136.32 503.598 C 104.714 484.818 79.667 459.282 106.118 391.531 C 114.121 371.033 143.746 326.836 161.118 299.531 C 182.256 266.305 195.118 237.531 228.125 212.531 C 262.813 183.809 285.912 187.407 311.118 202.531 C 336.118 217.531 350.118 248.531 338.118 284.531 C 329.151 308.262 301.121 340.916 280.118 375.531 C 257.183 413.329 244.957 458.612 228.125 477.548 Z " fill="none" vector-effect="non-scaling-stroke" stroke-width="4" stroke="rgb(0,0,0)" stroke-linejoin="miter" stroke-linecap="square" stroke-miterlimit="3"/><path d=" M 228.125 477.548 C 201.118 516.531 164.774 520.505 136.32 503.598 C 104.714 484.818 79.667 459.282 106.118 391.531 C 114.121 371.033 143.746 326.836 161.118 299.531 C 182.256 266.305 195.118 237.531 228.125 212.531 C 262.813 183.809 285.912 187.407 311.118 202.531 C 336.118 217.531 350.118 248.531 338.118 284.531 C 329.151 308.262 301.121 340.916 280.118 375.531 C 257.183 413.329 244.957 458.612 228.125 477.548 Z " fill="none" vector-effect="non-scaling-stroke" stroke-width="2" stroke="rgb(244,193,216)" stroke-linejoin="miter" stroke-linecap="square" stroke-miterlimit="3"/></g></g></svg>