<?xml version="1.0" standalone="no"?><!-- Generator: Gravit.io --><svg xmlns="http://www.w3.org/2000/svg" xmlns:xlink="http://www.w3.org/1999/xlink" style="isolation:isolate" viewBox="16 129 801 568.236" width="801" height="568.236"><g style="isolation:isolate" id="green microbe"><g id="null"><path d=" M 625.463 503.884 C 597.5 543.936 558.732 547.232 527.911 528.918 C 493.675 508.575 466.294 481.336 492.988 411.243 C 501.063 390.037 531.704 344.603 549.638 316.512 C 571.461 282.33 584.538 252.6 619.245 227.282 C 655.661 198.118 680.445 202.416 707.751 218.792 C 734.834 235.034 750.531 267.718 738.545 305.01 C 729.514 329.568 700.309 362.992 678.663 398.627 C 655.026 437.539 643.016 484.514 625.463 503.884 Z " fill="rgb(28,172,54)" vector-effect="non-scaling-stroke" stroke-width="1.5" stroke="rgb(0,0,0)" stroke-linejoin="miter" stroke-linecap="square" stroke-miterlimit="3"/><path d=" M 614.125 490.548 C 587.118 529.531 550.774 533.505 522.32 516.598 C 490.714 497.818 465.667 472.282 492.118 404.531 C 500.121 384.033 529.746 339.836 547.118 312.531 C 568.256 279.305 581.118 250.531 614.125 225.531 C 648.813 196.809 671.912 200.407 697.118 215.531 C 722.118 230.531 736.118 261.531 724.118 297.531 C 715.151 321.262 687.121 353.916 666.118 388.531 C 643.183 426.329 630.957 471.612 614.125 490.548 Z " fill="rgb(207,236,222)"/><g style="isolation: isolate;"><path d=" M 614.125 490.548 C 587.118 529.531 550.774 533.505 522.32 516.598 C 490.714 497.818 465.667 472.282 492.118 404.531 C 500.121 384.033 529.746 339.836 547.118 312.531 C 568.256 279.305 581.118 250.531 614.125 225.531 C 648.813 196.809 671.912 200.407 697.118 215.531 C 722.118 230.531 736.118 261.531 724.118 297.531 C 715.151 321.262 687.121 353.916 666.118 388.531 C 643.183 426.329 630.957 471.612 614.125 490.548 Z " fill="none" vector-effect="non-scaling-stroke" stroke-width="4" stroke="rgb(0,0,0)" stroke-linejoin="miter" stroke-linecap="square" stroke-miterlimit="3"/><path d=" M 614.125 490.548 C 587.118 529.531 550.774 533.505 522.32 516.598 C 490.714 497.818 465.667 472.282 492.118 404.531 C 500.121 384.033 529.746 339.836 547.118 312.531 C 568.256 279.305 581.118 250.531 614.125 225.531 C 648.813 196.809 671.912 200.407 697.118 215.531 C 722.118 230.531 736.118 261.531 724.118 297.531 C 715.151 321.262 687.121 353.916 666.118 388.531 C 643.183 426.329 630.957 471.612 614.125 490.548 Z " fill="none" vector-effect="non-scaling-stroke" stroke-width="2" stroke="rgb(149,215,155)" stroke-linejoin="miter" stroke-linecap="square" stroke-miterlimit="3"/></g></g></g><g style="isolation:isolate" id="red microbe"><g id="null"><path d=" M 239.463 490.884 C 211.5 530.936 172.732 534.232 141.911 515.918 C 107.675 495.575 80.294 468.336 106.988 398.243 C 115.063 377.037 145.704 331.603 163.638 303.512 C 185.461 269.33 198.538 239.6 233.245 214.282 C 269.661 185.118 294.445 189.416 321.751 205.792 C 348.834 222.034 364.531 254.718 352.545 292.01 C 343.514 316.568 314.309 349.992 292.663 385.627 C 269.026 424.539 257.016 471.514 239.463 490.884 Z " fill="rgb(191,71,95)" vector-effect="non-scaling-stroke" stroke-width="1.5" stroke="rgb(0,0,0)" stroke-linejoin="miter" stroke-linecap="square" stroke-miterlimit="3"/><path d=" M 308 202.527 C 315.755 193.379 322.824 182.222 332.212 175.517 C 337.153 172.222 343.552 167.514 347.963 167.514 C 357.103 166.43 361.02 166.513 368.964 173.182 C 376.026 180.185 377.151 192.981 380.361 196.191 C 385.325 201.155 393.351 198.616 397.534 194.433 C 402.484 185.906 403.62 176.979 409.315 173.182 C 417.501 167.725 429.388 177.602 436.018 173.182 C 442.345 168.964 440.199 160.533 436.018 156.352 C 428.558 148.891 403.72 144.667 393.888 144.667 C 385.697 144.667 378.724 144 371.546 144 C 357.706 144 375.149 143 380.883 143 C 389.19 143 393.171 143 399.89 143 C 406.602 143 430.727 146.872 436.018 152.425 C 441.927 158.334 443.126 160.189 443.872 165.776 C 442.86 175.114 439.75 176.951 431.305 178.342 C 423.149 178.558 416.863 174.881 411.671 178.342 C 404.74 182.963 403.862 201.979 393.699 204.528 C 386.647 206.878 382.983 208.037 375.965 204.528 C 366.864 199.977 373.358 194.19 361.089 184.807 C 350.016 176.85 342.722 186.931 339.212 190.933 C 333.719 196.935 321.903 211.036 320.836 212.531" fill="rgb(191,71,95)" vector-effect="non-scaling-stroke" stroke-width="0.5" stroke="rgb(0,0,0)" stroke-linejoin="miter" stroke-linecap="square" stroke-miterlimit="3"/><path d=" M 228.125 477.548 C 201.118 516.531 164.774 520.505 136.32 503.598 C 104.714 484.818 79.667 459.282 106.118 391.531 C 114.121 371.033 143.746 326.836 161.118 299.531 C 182.256 266.305 195.118 237.531 228.125 212.531 C 262.813 183.809 285.912 187.407 311.118 202.531 C 336.118 217.531 350.118 248.531 338.118 284.531 C 329.151 308.262 301.121 340.916 280.118 375.531 C 257.183 413.329 244.957 458.612 228.125 477.548 Z " fill="rgb(253,229,234)"/><g style="isolation: isolate;"><path d=" M 228.125 477.548 C 201.118 516.531 164.774 520.505 136.32 503.598 C 104.714 484.818 79.667 459.282 106.118 391.531 C 114.121 371.033 143.746 326.836 161.118 299.531 C 182.256 266.305 195.118 237.531 228.125 212.531 C 262.813 183.809 285.912 187.407 311.118 202.531 C 336.118 217.531 350.118 248.531 338.118 284.531 C 329.151 308.262 301.121 340.916 280.118 375.531 C 257.183 413.329 244.957 458.612 228.125 477.548 Z " fill="none" vector-effect="non-scaling-stroke" stroke-width="4" stroke="rgb(0,0,0)" stroke-linejoin="miter" stroke-linecap="square" stroke-miterlimit="3"/><path d=" M 228.125 477.548 C 201.118 516.531 164.774 520.505 136.32 503.598 C 104.714 484.818 79.667 459.282 106.118 391.531 C 114.121 371.033 143.746 326.836 161.118 299.531 C 182.256 266.305 195.118 237.531 228.125 212.531 C 262.813 183.809 285.912 187.407 311.118 202.531 C 336.118 217.531 350.118 248.531 338.118 284.531 C 329.151 308.262 301.121 340.916 280.118 375.531 C 257.183 413.329 244.957 458.612 228.125 477.548 Z " fill="none" vector-effect="non-scaling-stroke" stroke-width="2" stroke="rgb(244,193,216)" stroke-linejoin="miter" stroke-linecap="square" stroke-miterlimit="3"/></g></g></g><g style="isolation:isolate" id="plasmids"><g id="null"><path d=" M 168.883 347.28 C 173.528 339.99 184.791 333.63 193.698 327.729 C 202.299 322.032 211.369 321.902 226.409 320.962 C 235.577 320.128 240.867 319.614 245.201 320.363 C 249.666 321.135 253.115 323.246 258.743 327.729 C 263.553 331.561 265.669 337.081 264.696 343.379 C 264.086 347.331 262.259 351.589 259.119 355.928 C 250.096 366.831 241.8 367.072 235.808 373.599 C 225.281 385.066 232.988 378.111 221.897 390.114 C 210.241 400.858 200.278 402.174 182.795 395.782 C 162.456 388.346 162.253 357.689 168.883 347.28 Z " fill="none"/><g style="isolation: isolate;"><path d=" M 168.883 347.28 C 173.528 339.99 184.791 333.63 193.698 327.729 C 202.299 322.032 211.369 321.902 226.409 320.962 C 235.577 320.128 240.867 319.614 245.201 320.363 C 249.666 321.135 253.115 323.246 258.743 327.729 C 263.553 331.561 265.669 337.081 264.696 343.379 C 264.086 347.331 262.259 351.589 259.119 355.928 C 250.096 366.831 241.8 367.072 235.808 373.599 C 225.281 385.066 232.988 378.111 221.897 390.114 C 210.241 400.858 200.278 402.174 182.795 395.782 C 162.456 388.346 162.253 357.689 168.883 347.28 Z " fill="none" vector-effect="non-scaling-stroke" stroke-width="8" stroke="rgb(0,0,0)" stroke-linejoin="miter" stroke-linecap="square" stroke-miterlimit="3"/><path d=" M 168.883 347.28 C 173.528 339.99 184.791 333.63 193.698 327.729 C 202.299 322.032 211.369 321.902 226.409 320.962 C 235.577 320.128 240.867 319.614 245.201 320.363 C 249.666 321.135 253.115 323.246 258.743 327.729 C 263.553 331.561 265.669 337.081 264.696 343.379 C 264.086 347.331 262.259 351.589 259.119 355.928 C 250.096 366.831 241.8 367.072 235.808 373.599 C 225.281 385.066 232.988 378.111 221.897 390.114 C 210.241 400.858 200.278 402.174 182.795 395.782 C 162.456 388.346 162.253 357.689 168.883 347.28 Z " fill="none" vector-effect="non-scaling-stroke" stroke-width="7" stroke="rgb(185,185,185)" stroke-linejoin="miter" stroke-linecap="square" stroke-miterlimit="3"/></g><g id="null"><path d=" M 258.111 327.648 C 256.894 326.592 254.326 324.92 251.72 323.512 C 249.543 322.593 247.099 321.844 243.448 321.632 L 242.32 319 Q 245.741 319.113 247.433 319.376 C 249.802 319.827 252.096 320.654 254.201 321.82 Q 256.795 323.361 261.57 327.008 L 258.111 327.648 Z " fill="rgb(221,18,18)"/></g></g><g id="null"><path d=" M 560.883 347.575 C 565.528 340.284 576.791 333.924 585.698 328.024 C 594.299 322.326 603.369 322.196 618.409 321.256 C 627.577 320.422 632.867 319.908 637.201 320.657 C 641.666 321.429 645.115 323.541 650.743 328.024 C 655.553 331.855 657.669 337.376 656.696 343.673 C 656.086 347.625 654.259 351.883 651.119 356.222 C 642.096 367.126 633.8 367.366 627.808 373.893 C 617.281 385.361 624.988 378.405 613.897 390.408 C 602.241 401.152 592.278 402.468 574.795 396.076 C 554.456 388.641 554.253 357.983 560.883 347.575 Z " fill="none"/><g style="isolation: isolate;"><path d=" M 560.883 347.575 C 565.528 340.284 576.791 333.924 585.698 328.024 C 594.299 322.326 603.369 322.196 618.409 321.256 C 627.577 320.422 632.867 319.908 637.201 320.657 C 641.666 321.429 645.115 323.541 650.743 328.024 C 655.553 331.855 657.669 337.376 656.696 343.673 C 656.086 347.625 654.259 351.883 651.119 356.222 C 642.096 367.126 633.8 367.366 627.808 373.893 C 617.281 385.361 624.988 378.405 613.897 390.408 C 602.241 401.152 592.278 402.468 574.795 396.076 C 554.456 388.641 554.253 357.983 560.883 347.575 Z " fill="none" vector-effect="non-scaling-stroke" stroke-width="8" stroke="rgb(0,0,0)" stroke-linejoin="miter" stroke-linecap="square" stroke-miterlimit="3"/><path d=" M 560.883 347.575 C 565.528 340.284 576.791 333.924 585.698 328.024 C 594.299 322.326 603.369 322.196 618.409 321.256 C 627.577 320.422 632.867 319.908 637.201 320.657 C 641.666 321.429 645.115 323.541 650.743 328.024 C 655.553 331.855 657.669 337.376 656.696 343.673 C 656.086 347.625 654.259 351.883 651.119 356.222 C 642.096 367.126 633.8 367.366 627.808 373.893 C 617.281 385.361 624.988 378.405 613.897 390.408 C 602.241 401.152 592.278 402.468 574.795 396.076 C 554.456 388.641 554.253 357.983 560.883 347.575 Z " fill="none" vector-effect="non-scaling-stroke" stroke-width="7" stroke="rgb(185,185,185)" stroke-linejoin="miter" stroke-linecap="square" stroke-miterlimit="3"/></g><g id="null"><path d=" M 648.111 327.648 C 646.894 326.592 644.326 324.92 641.72 323.512 C 639.543 322.593 637.099 321.844 633.448 321.632 L 632.32 319 Q 635.741 319.113 637.433 319.376 C 639.802 319.827 642.096 320.654 644.201 321.82 Q 646.795 323.361 651.57 327.008 L 648.111 327.648 Z " fill="rgb(221,18,18)"/></g></g></g><g style="isolation:isolate" id="gradient"><linearGradient id="_lgradient_1" x1="0%" y1="50%" x2="100%" y2="50%"><stop offset="0%" stop-opacity="1" style="stop-color:rgb(255,0,0)"/><stop offset="99.56521739130434%" stop-opacity="1" style="stop-color:rgb(255,255,0)"/><stop offset="100%" stop-opacity="1" style="stop-color:rgb(0,0,0)"/></linearGradient><path d=" M 16 579 L 817 646 L 16 646 L 16 579 Z " fill="url(#_lgradient_1)"/></g><g style="isolation:isolate" id="arrows"><line x1="270" y1="323" x2="618" y2="323" vector-effect="non-scaling-stroke" stroke-width="2" stroke="rgb(0,0,0)" stroke-linejoin="miter" stroke-linecap="square" stroke-miterlimit="3"/><path d=" M 625 170 C 655 203.333 687.677 203.343 723 170" fill="none" vector-effect="non-scaling-stroke" stroke-width="2" stroke="rgb(0,0,0)" stroke-linejoin="miter" stroke-linecap="square" stroke-miterlimit="3"/><path d=" M 200 163 C 230 196.333 262.677 196.343 298 163" fill="none" vector-effect="non-scaling-stroke" stroke-width="2" stroke="rgb(0,0,0)" stroke-linejoin="miter" stroke-linecap="square" stroke-miterlimit="3"/><line x1="255" y1="290" x2="255" y2="322" vector-effect="non-scaling-stroke" stroke-width="1" stroke="rgb(0,0,0)" stroke-linejoin="miter" stroke-linecap="square" stroke-miterlimit="3"/></g><g style="isolation:isolate" id="text labels"><g transform="matrix(1,0,0,1,139,129)"><text transform="matrix(1,0,0,1,0,21.377)" style="font-family:&quot;Open Sans&quot;;font-weight:400;font-size:20px;font-style:normal;fill:#000000;stroke:none;">Ammonia</text></g><g transform="matrix(1,0,0,1,564,137)"><text transform="matrix(1,0,0,1,0,21.377)" style="font-family:&quot;Open Sans&quot;;font-weight:400;font-size:20px;font-style:normal;fill:#000000;stroke:none;">Ammonia</text></g><g transform="matrix(1,0,0,1,324,670)"><text transform="matrix(1,0,0,1,0,21.377)" style="font-family:&quot;Open Sans&quot;;font-weight:400;font-size:20px;font-style:normal;fill:#000000;stroke:none;">Ammonia affinity</text></g><g transform="matrix(1,0,0,1,361,289)"><text transform="matrix(1,0,0,1,17.994,21.377)" style="font-family:&quot;Open Sans&quot;;font-weight:400;font-size:20px;font-style:normal;fill:#000000;stroke:none;">Horizontal</text><text transform="matrix(1,0,0,1,0.099,62.231)" style="font-family:&quot;Open Sans&quot;;font-weight:400;font-size:20px;font-style:normal;fill:#000000;stroke:none;">Gene Transfer</text></g><g transform="matrix(1,0,0,1,270,129)"><text transform="matrix(1,0,0,1,0,21.377)" style="font-family:&quot;Open Sans&quot;;font-weight:400;font-size:20px;font-style:normal;fill:#000000;stroke:none;">Nitrate</text></g><g transform="matrix(1,0,0,1,242,268.935)"><text transform="matrix(1,0,0,1,0,14.964)" style="font-family:&quot;Open Sans&quot;;font-weight:400;font-size:14px;font-style:italic;fill:#000000;stroke:none;">amo</text></g><g transform="matrix(1,0,0,1,695,137)"><text transform="matrix(1,0,0,1,0,21.377)" style="font-family:&quot;Open Sans&quot;;font-weight:400;font-size:20px;font-style:normal;fill:#000000;stroke:none;">Nitrite</text></g></g></svg>